<svg width="105" height="68" viewBox="0 0 105 68" fill="none" xmlns="http://www.w3.org/2000/svg">
<path opacity="0.5" d="M104.203 12.0429L88.5243 67.5865C88.4445 67.8386 88.1257 67.9142 87.9396 67.7377L77.4427 57.7787L85.3087 29.9439C85.3885 29.6918 85.1493 29.4648 84.8836 29.5405L55.5452 37.0034L45.1014 27.0948C44.9154 26.9184 44.9951 26.6158 45.2608 26.5402L103.778 11.6395C104.044 11.589 104.283 11.8159 104.203 12.0429Z" fill="#F0F41A"/>
<path opacity="0.5" d="M59.2033 1.3412L43.5243 56.8848C43.4445 57.1369 43.1257 57.2126 42.9396 57.0361L32.4427 47.0771L40.3087 19.2422C40.3885 18.9901 40.1493 18.7632 39.8836 18.8388L10.5452 26.3018L0.101381 16.3932C-0.0846408 16.2167 -0.00491742 15.9141 0.260829 15.8385L58.7781 0.937795C59.0438 0.887369 59.283 1.11428 59.2033 1.3412Z" fill="#F0F41A"/>
</svg>
